<?xml version="1.0" encoding="utf-8"?>
<!-- Generator: Adobe Illustrator 19.1.0, SVG Export Plug-In . SVG Version: 6.00 Build 0)  -->
<svg version="1.1" id="Ebene_1" xmlns="http://www.w3.org/2000/svg" xmlns:xlink="http://www.w3.org/1999/xlink" x="0px" y="0px"
	 viewBox="-294 182 554 466" style="enable-background:new -294 182 554 466;" xml:space="preserve">
<style type="text/css">
	.st0{fill:#E58139;fill-opacity:0.349;stroke:#000000;}
	.st1{font-family:'TimesNewRomanPSMT';}
	.st2{font-size:14px;}
	.st3{fill:#E58139;fill-opacity:0.3294;stroke:#000000;}
	.st4{fill:none;stroke:#000000;}
	.st5{stroke:#000000;}
	.st6{fill:#E58139;fill-opacity:0.4314;stroke:#000000;}
	.st7{fill:#C0C0C0;stroke:#000000;}
</style>
<g id="graph0" transform="scale(1 1) rotate(0) translate(4 908)">
	<title>Tree</title>
	<g id="node1">
		<title>0</title>
		<polygon class="st0" points="145.3,-718.2 -176.7,-717.6 -176.7,-565.7 145.3,-566.4 		"/>
		<text transform="matrix(1 0 0 1 -87.5 -703.0434)" class="st1 st2">la_eth_aindian ≤ 1748.5</text>
		<text transform="matrix(1 0 0 1 -58.5 -688.0434)" class="st1 st2">gini = 0.0511</text>
		<text transform="matrix(1 0 0 1 -72.5 -673.0434)" class="st1 st2">samples = 100.0%</text>
		<text transform="matrix(1 0 0 1 -171.5 -658.0434)" class="st1 st2">value = [[1.0, 0.0]</text>
		<text transform="matrix(1 0 0 1 -54.898 -658.0433)" class="st1 st2">[1.0, 0.0]</text>
		<text transform="matrix(1 0 0 1 12.05 -658.0435)" class="st1 st2">[0.99, 0.01]</text>
		<text transform="matrix(1 0 0 1 77.8837 -658.0432)" class="st1 st2">[1.0, 0.0]</text>
		<text transform="matrix(1 0 0 1 -122.1667 -641.3767)" class="st1 st2">[0.99, 0.01]</text>
		<text transform="matrix(1 0 0 1 -54.898 -641.3769)" class="st1 st2">[1.0, 0.0]</text>
		<text transform="matrix(1 0 0 1 12.05 -641.377)" class="st1 st2">[0.38, 0.62]</text>
		<text transform="matrix(1 0 0 1 77.8837 -641.3771)" class="st1 st2">[0.97, 0.03]</text>
		<text transform="matrix(1 0 0 1 -122.1667 -624.7101)" class="st1 st2">[1.0, 0.0]</text>
		<text transform="matrix(1 0 0 1 -54.898 -624.7103)" class="st1 st2">[0.99, 0.01]</text>
		<text transform="matrix(1 0 0 1 12.05 -624.7103)" class="st1 st2">[0.96, 0.04]</text>
		<text transform="matrix(1 0 0 1 77.8837 -624.7104)" class="st1 st2">[0.99, 0.01]</text>
		<text transform="matrix(1 0 0 1 -122.1668 -606.7101)" class="st1 st2">[1.0, 0.0]</text>
		<text transform="matrix(1 0 0 1 -54.898 -606.7103)" class="st1 st2">[0.99, 0.01]</text>
		<text transform="matrix(1 0 0 1 12.05 -606.7103)" class="st1 st2">[0.99, 0.01]</text>
		<text transform="matrix(1 0 0 1 77.8837 -606.7104)" class="st1 st2">[0.99, 0.01]</text>
		<text transform="matrix(1 0 0 1 -122.1667 -588.7101)" class="st1 st2">[0.99, 0.01]</text>
		<text transform="matrix(1 0 0 1 -54.898 -588.7103)" class="st1 st2">[1.0, 0.0]</text>
		<text transform="matrix(1 0 0 1 12.05 -588.7104)" class="st1 st2">[1.0, 0.0]</text>
		<text transform="matrix(1 0 0 1 77.8837 -588.7107)" class="st1 st2">[0.99, 0.01]</text>
		<text transform="matrix(1 0 0 1 -122.1667 -572.0435)" class="st1 st2">[0.9, 0.1]</text>
		<text transform="matrix(1 0 0 1 -54.898 -572.0436)" class="st1 st2">[0.99, 0.01]</text>
		<text transform="matrix(1 0 0 1 12.05 -572.0436)" class="st1 st2">[0.9, 0.1]]</text>
	</g>
	<g id="node2">
		<title>1</title>
		<polygon class="st3" points="-29,-530 -290,-530 -290,-340.7 -29,-340.7 		"/>
		<text transform="matrix(1 0 0 1 -205 -514.8)" class="st1 st2">la_occ_skilled ≤ 0.5</text>
		<text transform="matrix(1 0 0 1 -186.5 -499.8)" class="st1 st2">gini = 0.0528</text>
		<text transform="matrix(1 0 0 1 -197.5 -484.8)" class="st1 st2">samples = 76.3%</text>
		<text transform="matrix(1 0 0 1 -286.1667 -469.8)" class="st1 st2">value = [[1.0, 0.0]</text>
		<text transform="matrix(1 0 0 1 -168.8333 -469.7999)" class="st1 st2">[1.0, 0.0]</text>
		<text transform="matrix(1 0 0 1 -100.1667 -469.7993)" class="st1 st2">[0.99, 0.01]</text>
		<text transform="matrix(1 0 0 1 -236.3333 -450.8009)" class="st1 st2">[1.0, 0.0]</text>
		<text transform="matrix(1 0 0 1 -168.8333 -450.8005)" class="st1 st2">[0.99, 0.01]</text>
		<text transform="matrix(1 0 0 1 -100.1667 -450.8007)" class="st1 st2">[1.0, 0.0]</text>
		<text transform="matrix(1 0 0 1 -236.3333 -432.4666)" class="st1 st2">[0.4, 0.6]</text>
		<text transform="matrix(1 0 0 1 -168.8333 -432.4668)" class="st1 st2">[0.96, 0.04]</text>
		<text transform="matrix(1 0 0 1 -100.1667 -432.4668)" class="st1 st2">[1.0, 0.0]</text>
		<text transform="matrix(1 0 0 1 -236.3333 -415.4666)" class="st1 st2">[0.99, 0.01]</text>
		<text transform="matrix(1 0 0 1 -168.8333 -415.4668)" class="st1 st2">[0.96, 0.04]</text>
		<text transform="matrix(1 0 0 1 -100.1667 -415.4669)" class="st1 st2">[0.99, 0.01]</text>
		<text transform="matrix(1 0 0 1 -236.3333 -399.1333)" class="st1 st2">[1.0, 0.0]</text>
		<text transform="matrix(1 0 0 1 -168.8333 -399.1335)" class="st1 st2">[0.99, 0.01]</text>
		<text transform="matrix(1 0 0 1 -100.1667 -399.1335)" class="st1 st2">[0.99, 0.01]</text>
		<text transform="matrix(1 0 0 1 -236.3333 -382.1333)" class="st1 st2">[0.99, 0.01]</text>
		<text transform="matrix(1 0 0 1 -168.8333 -382.1335)" class="st1 st2">[0.99, 0.01]</text>
		<text transform="matrix(1 0 0 1 -100.1667 -382.1335)" class="st1 st2">[1.0, 0.0]</text>
		<text transform="matrix(1 0 0 1 -236.3333 -364.8002)" class="st1 st2">[1.0, 0.0]</text>
		<text transform="matrix(1 0 0 1 -168.8333 -364.8004)" class="st1 st2">[0.99, 0.01]</text>
		<text transform="matrix(1 0 0 1 -100.1667 -364.8006)" class="st1 st2">[0.9, 0.1]</text>
		<text transform="matrix(1 0 0 1 -236.3333 -347.4667)" class="st1 st2">[0.99, 0.01]</text>
		<text transform="matrix(1 0 0 1 -168.8333 -347.4669)" class="st1 st2">[0.88, 0.12]]</text>
	</g>
	<g id="edge1">
		<title>0-&gt;1</title>
		<path class="st4" d="M-54.1-565.7c-1.4,8.5-2.8,17.1-4.3,25.6"/>
		<polygon class="st5" points="-54.9,-539.3 -60,-530 -61.8,-540.5 		"/>
		<text transform="matrix(1 0 0 1 -87.4937 -546.674)" class="st1 st2">True</text>
	</g>
	<g id="node5">
		<title>684696</title>
		<polygon class="st6" points="249,-530.1 -12,-530 -12,-340.7 249,-340.8 		"/>
		<text transform="matrix(1 0 0 1 77.8837 -514.8)" class="st1 st2">la_car_1 ≤ 20703.0</text>
		<text transform="matrix(1 0 0 1 93.8837 -499.8)" class="st1 st2">gini = 0.0448</text>
		<text transform="matrix(1 0 0 1 82.8837 -484.8)" class="st1 st2">samples = 23.7%</text>
		<text transform="matrix(1 0 0 1 -7.5 -469.8002)" class="st1 st2">value = [[1.0, 0.0]</text>
		<text transform="matrix(1 0 0 1 109.6667 -469.7999)" class="st1 st2">[1.0, 0.0]</text>
		<text transform="matrix(1 0 0 1 179.8333 -469.8)" class="st1 st2">[0.99, 0.01]</text>
		<text transform="matrix(1 0 0 1 42.3333 -450.8011)" class="st1 st2">[1.0, 0.0]</text>
		<text transform="matrix(1 0 0 1 109.6667 -450.8013)" class="st1 st2">[1.0, 0.0]</text>
		<text transform="matrix(1 0 0 1 179.8333 -450.8007)" class="st1 st2">[1.0, 0.0]</text>
		<text transform="matrix(1 0 0 1 42.3333 -435.3335)" class="st1 st2">[0.31, 0.69]</text>
		<text transform="matrix(1 0 0 1 109.6667 -435.3335)" class="st1 st2">[0.98, 0.02]</text>
		<text transform="matrix(1 0 0 1 179.8333 -435.3335)" class="st1 st2">[1.0, 0.0]</text>
		<text transform="matrix(1 0 0 1 42.3333 -415.467)" class="st1 st2">[0.99, 0.01]</text>
		<text transform="matrix(1 0 0 1 109.6667 -415.4672)" class="st1 st2">[0.96, 0.04]</text>
		<text transform="matrix(1 0 0 1 179.8333 -415.4669)" class="st1 st2">[0.98, 0.02]</text>
		<text transform="matrix(1 0 0 1 42.3333 -399.1337)" class="st1 st2">[1.0, 0.0]</text>
		<text transform="matrix(1 0 0 1 109.6667 -399.1339)" class="st1 st2">[0.99, 0.01]</text>
		<text transform="matrix(1 0 0 1 179.8333 -399.1335)" class="st1 st2">[0.99, 0.01]</text>
		<text transform="matrix(1 0 0 1 42.3333 -382.1337)" class="st1 st2">[0.99, 0.01]</text>
		<text transform="matrix(1 0 0 1 109.6667 -382.1339)" class="st1 st2">[0.99, 0.01]</text>
		<text transform="matrix(1 0 0 1 179.8333 -382.1335)" class="st1 st2">[1.0, 0.0]</text>
		<text transform="matrix(1 0 0 1 42.3333 -364.8004)" class="st1 st2">[1.0, 0.0]</text>
		<text transform="matrix(1 0 0 1 109.6667 -364.8004)" class="st1 st2">[0.98, 0.02]</text>
		<text transform="matrix(1 0 0 1 179.8333 -364.8004)" class="st1 st2">[0.9, 0.1]</text>
		<text transform="matrix(1 0 0 1 42.3333 -347.4671)" class="st1 st2">[0.99, 0.01]</text>
		<text transform="matrix(1 0 0 1 109.6667 -347.4673)" class="st1 st2">[0.95, 0.05]]</text>
	</g>
	<g id="edge4">
		<title>0-&gt;684696</title>
		<path class="st4" d="M12.1-565.7c1.4,8.5,2.8,17.1,4.3,25.6"/>
		<polygon class="st5" points="19.8,-540.5 18,-530 12.9,-539.3 		"/>
		<text transform="matrix(1 0 0 1 17.7501 -546.674)" class="st1 st2">False</text>
	</g>
	<g id="node3">
		<title>2</title>
		<polygon class="st7" points="-180.5,-304.8 -234.5,-304.8 -234.5,-268.8 -180.5,-268.8 		"/>
		<text transform="matrix(1 0 0 1 -217.4121 -283.1381)" class="st1 st2">(...)</text>
	</g>
	<g id="edge2">
		<title>1-&gt;2</title>
		<path class="st4" d="M-199.9-340.8c-1.4,9.6-2.6,18.3-3.7,25.8"/>
		<polygon class="st5" points="-200.2,-314.4 -205,-305 -207.1,-315.4 		"/>
	</g>
	<g id="node4">
		<title>549839</title>
		<polygon class="st7" points="-108.5,-304.8 -162.5,-304.8 -162.5,-268.8 -108.5,-268.8 		"/>
		<text transform="matrix(1 0 0 1 -145.4121 -283.1381)" class="st1 st2">(...)</text>
	</g>
	<g id="edge3">
		<title>1-&gt;549839</title>
		<path class="st4" d="M-143.1-340.8c1.4,9.6,2.6,18.3,3.7,25.8"/>
		<polygon class="st5" points="-135.9,-315.4 -138,-305 -142.8,-314.4 		"/>
	</g>
	<g id="node6">
		<title>684697</title>
		<polygon class="st7" points="118,-304.9 64,-304.9 64,-268.9 118,-268.9 		"/>
		<text transform="matrix(1 0 0 1 81.0879 -283.1761)" class="st1 st2">(...)</text>
	</g>
	<g id="edge5">
		<title>684696-&gt;684697</title>
		<path class="st4" d="M94.8-340.8c-0.7,9.6-1.3,18.3-1.8,25.8"/>
		<polygon class="st5" points="96.4,-314.7 92.2,-305 89.5,-315.2 		"/>
	</g>
	<g id="node7">
		<title>802228</title>
		<polygon class="st7" points="190,-304.9 136,-304.9 136,-268.9 190,-268.9 		"/>
		<text transform="matrix(1 0 0 1 153.0879 -283.1761)" class="st1 st2">(...)</text>
	</g>
	<g id="edge6">
		<title>684696-&gt;802228</title>
		<path class="st4" d="M151.6-340.8c2.1,9.6,3.9,18.3,5.5,25.8"/>
		<polygon class="st5" points="160.6,-315.5 159.3,-305 153.8,-314 		"/>
	</g>
</g>
</svg>
