<?xml version="1.0" encoding="UTF-8" standalone="no"?>
<!DOCTYPE svg PUBLIC "-//W3C//DTD SVG 1.1//EN"
 "http://www.w3.org/Graphics/SVG/1.1/DTD/svg11.dtd">
<!-- Generated by graphviz version 2.38.0 (20140413.2041)
 -->
<!-- Title: Tree Pages: 1 -->
<svg width="297pt" height="912pt"
 viewBox="0.00 0.00 297.00 912.00" xmlns="http://www.w3.org/2000/svg" xmlns:xlink="http://www.w3.org/1999/xlink">
<g id="graph0" class="graph" transform="scale(1 1) rotate(0) translate(4 908)">
<title>Tree</title>
<polygon fill="white" stroke="none" points="-4,4 -4,-908 293,-908 293,4 -4,4"/>
<!-- 0 -->
<g id="node1" class="node"><title>0</title>
<polygon fill="#e58139" fill-opacity="0.349020" stroke="black" points="210.5,-904 61.5,-904 61.5,-506 210.5,-506 210.5,-904"/>
<text text-anchor="start" x="69.5" y="-888.8" font-family="Times,serif" font-size="14.00">la_eth_aindian ≤ 1748.5</text>
<text text-anchor="start" x="98.5" y="-873.8" font-family="Times,serif" font-size="14.00">gini = 0.0511</text>
<text text-anchor="start" x="84.5" y="-858.8" font-family="Times,serif" font-size="14.00">samples = 100.0%</text>
<text text-anchor="start" x="85.5" y="-843.8" font-family="Times,serif" font-size="14.00">value = [[1.0, 0.0]</text>
<text text-anchor="start" x="110" y="-828.8" font-family="Times,serif" font-size="14.00">[1.0, 0.0]</text>
<text text-anchor="start" x="103.5" y="-813.8" font-family="Times,serif" font-size="14.00">[0.99, 0.01]</text>
<text text-anchor="start" x="110" y="-798.8" font-family="Times,serif" font-size="14.00">[1.0, 0.0]</text>
<text text-anchor="start" x="103.5" y="-783.8" font-family="Times,serif" font-size="14.00">[0.99, 0.01]</text>
<text text-anchor="start" x="110" y="-768.8" font-family="Times,serif" font-size="14.00">[1.0, 0.0]</text>
<text text-anchor="start" x="103.5" y="-753.8" font-family="Times,serif" font-size="14.00">[0.38, 0.62]</text>
<text text-anchor="start" x="103.5" y="-738.8" font-family="Times,serif" font-size="14.00">[0.97, 0.03]</text>
<text text-anchor="start" x="110" y="-723.8" font-family="Times,serif" font-size="14.00">[1.0, 0.0]</text>
<text text-anchor="start" x="103.5" y="-708.8" font-family="Times,serif" font-size="14.00">[0.99, 0.01]</text>
<text text-anchor="start" x="103.5" y="-693.8" font-family="Times,serif" font-size="14.00">[0.96, 0.04]</text>
<text text-anchor="start" x="103.5" y="-678.8" font-family="Times,serif" font-size="14.00">[0.99, 0.01]</text>
<text text-anchor="start" x="110" y="-663.8" font-family="Times,serif" font-size="14.00">[1.0, 0.0]</text>
<text text-anchor="start" x="103.5" y="-648.8" font-family="Times,serif" font-size="14.00">[0.99, 0.01]</text>
<text text-anchor="start" x="103.5" y="-633.8" font-family="Times,serif" font-size="14.00">[0.99, 0.01]</text>
<text text-anchor="start" x="103.5" y="-618.8" font-family="Times,serif" font-size="14.00">[0.99, 0.01]</text>
<text text-anchor="start" x="103.5" y="-603.8" font-family="Times,serif" font-size="14.00">[0.99, 0.01]</text>
<text text-anchor="start" x="110" y="-588.8" font-family="Times,serif" font-size="14.00">[1.0, 0.0]</text>
<text text-anchor="start" x="110" y="-573.8" font-family="Times,serif" font-size="14.00">[1.0, 0.0]</text>
<text text-anchor="start" x="103.5" y="-558.8" font-family="Times,serif" font-size="14.00">[0.99, 0.01]</text>
<text text-anchor="start" x="110" y="-543.8" font-family="Times,serif" font-size="14.00">[0.9, 0.1]</text>
<text text-anchor="start" x="103.5" y="-528.8" font-family="Times,serif" font-size="14.00">[0.99, 0.01]</text>
<text text-anchor="start" x="108" y="-513.8" font-family="Times,serif" font-size="14.00">[0.9, 0.1]]</text>
</g>
<!-- 1 -->
<g id="node2" class="node"><title>1</title>
<polygon fill="#e58139" fill-opacity="0.329412" stroke="black" points="128,-470 0,-470 0,-72 128,-72 128,-470"/>
<text text-anchor="start" x="8" y="-454.8" font-family="Times,serif" font-size="14.00">la_occ_skilled ≤ 0.5</text>
<text text-anchor="start" x="26.5" y="-439.8" font-family="Times,serif" font-size="14.00">gini = 0.0528</text>
<text text-anchor="start" x="15.5" y="-424.8" font-family="Times,serif" font-size="14.00">samples = 76.3%</text>
<text text-anchor="start" x="13.5" y="-409.8" font-family="Times,serif" font-size="14.00">value = [[1.0, 0.0]</text>
<text text-anchor="start" x="38" y="-394.8" font-family="Times,serif" font-size="14.00">[1.0, 0.0]</text>
<text text-anchor="start" x="31.5" y="-379.8" font-family="Times,serif" font-size="14.00">[0.99, 0.01]</text>
<text text-anchor="start" x="38" y="-364.8" font-family="Times,serif" font-size="14.00">[1.0, 0.0]</text>
<text text-anchor="start" x="31.5" y="-349.8" font-family="Times,serif" font-size="14.00">[0.99, 0.01]</text>
<text text-anchor="start" x="38" y="-334.8" font-family="Times,serif" font-size="14.00">[1.0, 0.0]</text>
<text text-anchor="start" x="38" y="-319.8" font-family="Times,serif" font-size="14.00">[0.4, 0.6]</text>
<text text-anchor="start" x="31.5" y="-304.8" font-family="Times,serif" font-size="14.00">[0.96, 0.04]</text>
<text text-anchor="start" x="38" y="-289.8" font-family="Times,serif" font-size="14.00">[1.0, 0.0]</text>
<text text-anchor="start" x="31.5" y="-274.8" font-family="Times,serif" font-size="14.00">[0.99, 0.01]</text>
<text text-anchor="start" x="31.5" y="-259.8" font-family="Times,serif" font-size="14.00">[0.96, 0.04]</text>
<text text-anchor="start" x="31.5" y="-244.8" font-family="Times,serif" font-size="14.00">[0.99, 0.01]</text>
<text text-anchor="start" x="38" y="-229.8" font-family="Times,serif" font-size="14.00">[1.0, 0.0]</text>
<text text-anchor="start" x="31.5" y="-214.8" font-family="Times,serif" font-size="14.00">[0.99, 0.01]</text>
<text text-anchor="start" x="31.5" y="-199.8" font-family="Times,serif" font-size="14.00">[0.99, 0.01]</text>
<text text-anchor="start" x="31.5" y="-184.8" font-family="Times,serif" font-size="14.00">[0.99, 0.01]</text>
<text text-anchor="start" x="31.5" y="-169.8" font-family="Times,serif" font-size="14.00">[0.99, 0.01]</text>
<text text-anchor="start" x="38" y="-154.8" font-family="Times,serif" font-size="14.00">[1.0, 0.0]</text>
<text text-anchor="start" x="38" y="-139.8" font-family="Times,serif" font-size="14.00">[1.0, 0.0]</text>
<text text-anchor="start" x="31.5" y="-124.8" font-family="Times,serif" font-size="14.00">[0.99, 0.01]</text>
<text text-anchor="start" x="38" y="-109.8" font-family="Times,serif" font-size="14.00">[0.9, 0.1]</text>
<text text-anchor="start" x="31.5" y="-94.8" font-family="Times,serif" font-size="14.00">[0.99, 0.01]</text>
<text text-anchor="start" x="29" y="-79.8" font-family="Times,serif" font-size="14.00">[0.88, 0.12]]</text>
</g>
<!-- 0&#45;&gt;1 -->
<g id="edge1" class="edge"><title>0&#45;&gt;1</title>
<path fill="none" stroke="black" d="M102.95,-505.701C101.529,-497.172 100.101,-488.606 98.676,-480.056"/>
<polygon fill="black" stroke="black" points="102.102,-479.319 97.005,-470.03 95.1967,-480.47 102.102,-479.319"/>
<text text-anchor="middle" x="82.4741" y="-486.674" font-family="Times,serif" font-size="14.00">True</text>
</g>
<!-- 684696 -->
<g id="node5" class="node"><title>684696</title>
<polygon fill="#e58139" fill-opacity="0.431373" stroke="black" points="269.5,-470 146.5,-470 146.5,-72 269.5,-72 269.5,-470"/>
<text text-anchor="start" x="154.5" y="-454.8" font-family="Times,serif" font-size="14.00">la_car_1 ≤ 20703.0</text>
<text text-anchor="start" x="170.5" y="-439.8" font-family="Times,serif" font-size="14.00">gini = 0.0448</text>
<text text-anchor="start" x="159.5" y="-424.8" font-family="Times,serif" font-size="14.00">samples = 23.7%</text>
<text text-anchor="start" x="157.5" y="-409.8" font-family="Times,serif" font-size="14.00">value = [[1.0, 0.0]</text>
<text text-anchor="start" x="182" y="-394.8" font-family="Times,serif" font-size="14.00">[1.0, 0.0]</text>
<text text-anchor="start" x="175.5" y="-379.8" font-family="Times,serif" font-size="14.00">[0.99, 0.01]</text>
<text text-anchor="start" x="182" y="-364.8" font-family="Times,serif" font-size="14.00">[1.0, 0.0]</text>
<text text-anchor="start" x="182" y="-349.8" font-family="Times,serif" font-size="14.00">[1.0, 0.0]</text>
<text text-anchor="start" x="182" y="-334.8" font-family="Times,serif" font-size="14.00">[1.0, 0.0]</text>
<text text-anchor="start" x="175.5" y="-319.8" font-family="Times,serif" font-size="14.00">[0.31, 0.69]</text>
<text text-anchor="start" x="175.5" y="-304.8" font-family="Times,serif" font-size="14.00">[0.98, 0.02]</text>
<text text-anchor="start" x="182" y="-289.8" font-family="Times,serif" font-size="14.00">[1.0, 0.0]</text>
<text text-anchor="start" x="175.5" y="-274.8" font-family="Times,serif" font-size="14.00">[0.99, 0.01]</text>
<text text-anchor="start" x="175.5" y="-259.8" font-family="Times,serif" font-size="14.00">[0.96, 0.04]</text>
<text text-anchor="start" x="175.5" y="-244.8" font-family="Times,serif" font-size="14.00">[0.98, 0.02]</text>
<text text-anchor="start" x="182" y="-229.8" font-family="Times,serif" font-size="14.00">[1.0, 0.0]</text>
<text text-anchor="start" x="175.5" y="-214.8" font-family="Times,serif" font-size="14.00">[0.99, 0.01]</text>
<text text-anchor="start" x="175.5" y="-199.8" font-family="Times,serif" font-size="14.00">[0.99, 0.01]</text>
<text text-anchor="start" x="175.5" y="-184.8" font-family="Times,serif" font-size="14.00">[0.99, 0.01]</text>
<text text-anchor="start" x="175.5" y="-169.8" font-family="Times,serif" font-size="14.00">[0.99, 0.01]</text>
<text text-anchor="start" x="182" y="-154.8" font-family="Times,serif" font-size="14.00">[1.0, 0.0]</text>
<text text-anchor="start" x="182" y="-139.8" font-family="Times,serif" font-size="14.00">[1.0, 0.0]</text>
<text text-anchor="start" x="175.5" y="-124.8" font-family="Times,serif" font-size="14.00">[0.98, 0.02]</text>
<text text-anchor="start" x="182" y="-109.8" font-family="Times,serif" font-size="14.00">[0.9, 0.1]</text>
<text text-anchor="start" x="175.5" y="-94.8" font-family="Times,serif" font-size="14.00">[0.99, 0.01]</text>
<text text-anchor="start" x="173" y="-79.8" font-family="Times,serif" font-size="14.00">[0.95, 0.05]]</text>
</g>
<!-- 0&#45;&gt;684696 -->
<g id="edge4" class="edge"><title>0&#45;&gt;684696</title>
<path fill="none" stroke="black" d="M169.05,-505.701C170.471,-497.172 171.899,-488.606 173.324,-480.056"/>
<polygon fill="black" stroke="black" points="176.803,-480.47 174.995,-470.03 169.898,-479.319 176.803,-480.47"/>
<text text-anchor="middle" x="189.526" y="-486.674" font-family="Times,serif" font-size="14.00">False</text>
</g>
<!-- 2 -->
<g id="node3" class="node"><title>2</title>
<polygon fill="#c0c0c0" stroke="black" points="55,-36 1,-36 1,-0 55,-0 55,-36"/>
<text text-anchor="middle" x="28" y="-14.3" font-family="Times,serif" font-size="14.00">(...)</text>
</g>
<!-- 1&#45;&gt;2 -->
<g id="edge2" class="edge"><title>1&#45;&gt;2</title>
<path fill="none" stroke="black" d="M35.5907,-71.9239C34.2161,-62.3398 32.9648,-53.616 31.8924,-46.1389"/>
<polygon fill="black" stroke="black" points="35.34,-45.5229 30.4556,-36.1211 28.4109,-46.5167 35.34,-45.5229"/>
</g>
<!-- 549839 -->
<g id="node4" class="node"><title>549839</title>
<polygon fill="#c0c0c0" stroke="black" points="127,-36 73,-36 73,-0 127,-0 127,-36"/>
<text text-anchor="middle" x="100" y="-14.3" font-family="Times,serif" font-size="14.00">(...)</text>
</g>
<!-- 1&#45;&gt;549839 -->
<g id="edge3" class="edge"><title>1&#45;&gt;549839</title>
<path fill="none" stroke="black" d="M92.4093,-71.9239C93.7839,-62.3398 95.0352,-53.616 96.1076,-46.1389"/>
<polygon fill="black" stroke="black" points="99.5891,-46.5167 97.5444,-36.1211 92.66,-45.5229 99.5891,-46.5167"/>
</g>
<!-- 684697 -->
<g id="node6" class="node"><title>684697</title>
<polygon fill="#c0c0c0" stroke="black" points="217,-36 163,-36 163,-0 217,-0 217,-36"/>
<text text-anchor="middle" x="190" y="-14.3" font-family="Times,serif" font-size="14.00">(...)</text>
</g>
<!-- 684696&#45;&gt;684697 -->
<g id="edge5" class="edge"><title>684696&#45;&gt;684697</title>
<path fill="none" stroke="black" d="M193.795,-71.9239C193.108,-62.3398 192.482,-53.616 191.946,-46.1389"/>
<polygon fill="black" stroke="black" points="195.434,-45.8451 191.228,-36.1211 188.452,-46.3459 195.434,-45.8451"/>
</g>
<!-- 802228 -->
<g id="node7" class="node"><title>802228</title>
<polygon fill="#c0c0c0" stroke="black" points="289,-36 235,-36 235,-0 289,-0 289,-36"/>
<text text-anchor="middle" x="262" y="-14.3" font-family="Times,serif" font-size="14.00">(...)</text>
</g>
<!-- 684696&#45;&gt;802228 -->
<g id="edge6" class="edge"><title>684696&#45;&gt;802228</title>
<path fill="none" stroke="black" d="M250.614,-71.9239C252.676,-62.3398 254.553,-53.616 256.161,-46.1389"/>
<polygon fill="black" stroke="black" points="259.635,-46.6336 258.317,-36.1211 252.792,-45.1612 259.635,-46.6336"/>
</g>
</g>
</svg>
